<svg xmlns="http://www.w3.org/2000/svg" viewBox="0 0 96 35">
    <path fill-rule="evenodd" clip-rule="evenodd"
          d="M14.6653 13.4549V6.41479C14.6653 4.41773 13.5961 3.46964 11.8008 3.46964C10.308 3.46964 9.01702 4.35722 8.4522 5.2448C8.08909 4.13532 7.18134 3.46964 5.74911 3.46964C4.25636 3.46964 2.96533 4.39756 2.56188 4.98256V3.7117H0V13.4549H2.56188V6.89893C2.94516 6.35427 3.69153 5.74911 4.57911 5.74911C5.62807 5.74911 6.03152 6.39462 6.03152 7.30237V13.4549H8.61357V6.87875C8.97668 6.35427 9.72305 5.74911 10.6308 5.74911C11.6798 5.74911 12.0832 6.39462 12.0832 7.30237V13.4549H14.6653ZM21.7054 13.697C18.498 13.697 16.5615 11.357 16.5615 8.57323C16.5615 5.80962 18.498 3.46964 21.7054 3.46964C24.933 3.46964 26.8695 5.80962 26.8695 8.57323C26.8695 11.357 24.933 13.697 21.7054 13.697ZM21.7054 11.4175C23.299 11.4175 24.2068 10.1063 24.2068 8.57323C24.2068 7.06031 23.299 5.74911 21.7054 5.74911C20.1118 5.74911 19.2242 7.06031 19.2242 8.57323C19.2242 10.1063 20.1118 11.4175 21.7054 11.4175ZM37.9038 13.4549V6.57617C37.9038 4.67997 36.875 3.46964 34.7367 3.46964C33.1431 3.46964 31.9529 4.23618 31.3276 4.98256V3.7117H28.7657V13.4549H31.3276V6.89893C31.7512 6.31393 32.5379 5.74911 33.5465 5.74911C34.6358 5.74911 35.3419 6.21307 35.3419 7.56461V13.4549H37.9038ZM44.9641 13.697C41.7567 13.697 39.8201 11.357 39.8201 8.57323C39.8201 5.80962 41.7567 3.46964 44.9641 3.46964C48.1916 3.46964 50.1282 5.80962 50.1282 8.57323C50.1282 11.357 48.1916 13.697 44.9641 13.697ZM44.9641 11.4175C46.5577 11.4175 47.4654 10.1063 47.4654 8.57323C47.4654 7.06031 46.5577 5.74911 44.9641 5.74911C43.3705 5.74911 42.4829 7.06031 42.4829 8.57323C42.4829 10.1063 43.3705 11.4175 44.9641 11.4175ZM54.5863 10.3282C55.0099 10.9536 55.958 11.4175 56.785 11.4175C58.2778 11.4175 59.2662 10.2879 59.2662 8.5934C59.2662 6.89893 58.2778 5.74911 56.785 5.74911C55.958 5.74911 55.0099 6.23324 54.5863 6.87876V10.3282ZM54.5863 13.4549H52.0244V0H54.5863V4.96239C55.3528 3.97394 56.4421 3.46964 57.5919 3.46964C60.0731 3.46964 61.9088 5.40618 61.9088 8.5934C61.9088 11.8411 60.053 13.697 57.5919 13.697C56.4219 13.697 55.3528 13.1725 54.5863 12.2042V13.4549ZM72.2572 13.4549H69.6953V12.4463C69.0296 13.233 67.8798 13.697 66.6089 13.697C65.0557 13.697 63.22 12.648 63.22 10.4694C63.22 8.18995 65.0557 7.32255 66.6089 7.32255C67.9 7.32255 69.0498 7.74616 69.6953 8.51271V7.20151C69.6953 6.21307 68.8481 5.56755 67.557 5.56755C66.5081 5.56755 65.5398 5.95083 64.7128 6.71738L63.7445 5.00273C64.9346 3.95377 66.4677 3.46964 68.0008 3.46964C70.2198 3.46964 72.2572 4.35722 72.2572 7.16117V13.4549ZM67.6377 11.9622C68.4648 11.9622 69.2717 11.6798 69.6953 11.1149V9.9046C69.2717 9.33978 68.4648 9.05737 67.6377 9.05737C66.6291 9.05737 65.8021 9.58185 65.8021 10.5299C65.8021 11.4377 66.6291 11.9622 67.6377 11.9622ZM83.937 13.4549V6.57617C83.937 4.67997 82.9082 3.46964 80.7699 3.46964C79.1763 3.46964 77.9861 4.23618 77.3608 4.98256V3.7117H74.7989V13.4549H77.3608V6.89893C77.7844 6.31393 78.5711 5.74911 79.5797 5.74911C80.669 5.74911 81.3751 6.21307 81.3751 7.56461V13.4549H83.937ZM96 13.4549L92.0261 8.12944L95.879 3.7117H92.7321L89.0406 8.04875V0H86.4787V13.4549H89.0406V10.9536L90.2105 9.70288L92.7926 13.4549H96Z"
          fill="currentColor"/>
    <g fill="currentColor" style="opacity: 0.65;">
        <path fill-rule="evenodd" clip-rule="evenodd"
              d="M89.2344 24.1333H91.0643V29.9534H91.1678L93.5469 27.1577L95.2347 27.1533L92.6241 30.2091L95.7691 34.0308H93.6615L91.0904 30.4737H91.0643V34.0308H89.2344V24.1333Z"/>
        <path fill-rule="evenodd" clip-rule="evenodd"
              d="M2.24636 24.5759V30.0032C2.24636 31.8521 2.79408 32.8627 4.3271 32.8627C5.79538 32.8627 6.38255 31.6374 6.38255 30.1102V24.5759H8.11203V30.4481C8.11203 32.8356 6.5485 34.1884 4.27352 34.1884C1.66887 34.1884 0.314453 32.9301 0.314453 30.3535V24.5759H2.24636Z"/>
        <path fill-rule="evenodd" clip-rule="evenodd"
              d="M12.1545 28.0723C12.7737 27.4252 13.6355 27.1145 14.5002 27.1145C16.1039 27.1145 16.9523 27.9763 16.9523 29.6772V34.025H15.1328V29.8816C15.1328 28.9356 14.7086 28.3141 13.7605 28.3141C12.8697 28.3141 12.1694 28.8953 12.1694 30.0033V34.025H10.3477V27.275H12.1545V28.0723Z"/>
        <path fill-rule="evenodd" clip-rule="evenodd"
              d="M19.0927 34.0249H20.9152V27.2749H19.0927V34.0249ZM18.9141 25.2508C18.9141 24.7386 19.3516 24.2109 19.9708 24.2109C20.6004 24.2109 21.0916 24.7246 21.0916 25.2508C21.0916 25.8305 20.6696 26.3845 19.9969 26.3845C19.3516 26.3845 18.9141 25.8305 18.9141 25.2508Z"/>
        <path fill-rule="evenodd" clip-rule="evenodd"
              d="M24.9477 34.025L22.0312 27.2463H23.9624C24.5526 28.7992 25.1658 30.2597 25.7403 32.1357H25.7678C26.387 30.2597 26.9697 28.7992 27.5992 27.2463H29.3086L26.221 34.025H24.9477Z"/>
        <path fill-rule="evenodd" clip-rule="evenodd"
              d="M34.7318 29.8413C34.8033 28.8125 34.4326 28.1126 33.5299 28.1126C32.4844 28.1126 32.0155 28.9356 32.0356 29.8413H34.7318ZM32.0051 30.8131C31.9642 32.0831 32.8684 33.0262 34.0062 33.0262C34.6812 33.0262 35.3904 32.7968 35.8451 32.4854L36.3653 33.4314C35.4336 33.9708 34.4587 34.1885 33.678 34.1885C31.6085 34.1885 30.0605 32.7426 30.0605 30.5155C30.0605 28.4358 31.5936 27.1145 33.5545 27.1145C35.6925 27.1145 36.5848 28.8007 36.4501 30.8131H32.0051Z"/>
        <path fill-rule="evenodd" clip-rule="evenodd"
              d="M40.026 28.4629H40.0521L40.4227 27.9367C40.6266 27.6385 41.0381 27.1145 41.6 27.1145C42.0115 27.1145 42.4521 27.3307 42.8361 27.7205L42.1484 28.9627C41.847 28.8125 41.6543 28.7333 41.2867 28.7333C40.6556 28.7333 40.0394 29.2331 40.0394 30.69V34.025H38.2109V27.275H40.026V28.4629Z"/>
        <path fill-rule="evenodd" clip-rule="evenodd"
              d="M47.7019 28.5435C47.2918 28.2467 46.8661 28.1126 46.5357 28.1126C46.1257 28.1126 45.7134 28.3413 45.7134 28.8007C45.7134 29.3408 46.3727 29.6523 47.1392 30.2034C48.1156 30.9223 48.4006 31.6236 48.4006 32.2413C48.4006 33.1896 47.3439 34.1885 45.8384 34.1885C44.8918 34.1885 44.193 33.8631 43.5508 33.4183L44.126 32.4854C44.5346 32.8115 45.1232 33.1332 45.6159 33.1332C46.1405 33.1332 46.6042 32.8628 46.6042 32.2963C46.6042 31.6617 45.8905 31.3114 45.2349 30.8519C44.4527 30.3265 43.9199 29.8128 43.9199 28.9773C43.9199 27.9089 44.9588 27.1145 46.302 27.1145C47.0589 27.1145 47.7964 27.3021 48.2935 27.7359L47.7019 28.5435Z"/>
        <path fill-rule="evenodd" clip-rule="evenodd"
              d="M52.8941 30.4342C52.0048 30.7178 51.5523 31.2169 51.5523 31.9856C51.5523 32.5806 51.9363 32.9859 52.3784 32.9859C53.1017 32.9859 54.0483 32.094 53.9129 30.1103L52.8941 30.4342ZM53.4731 33.378C52.9782 33.7832 52.3479 34.1885 51.7198 34.1885C50.6489 34.1885 49.7559 33.378 49.7559 32.1358C49.7559 30.8519 50.704 30.1374 52.295 29.6772L53.9129 29.2045C53.8169 28.5845 53.2535 28.194 52.6671 28.194C51.8827 28.194 51.3343 28.4776 50.855 28.8828L50.2634 28.032C51.1155 27.3439 51.9497 27.1145 52.8941 27.1145C54.1585 27.1145 55.7079 27.5168 55.7079 29.6252V32.3776C55.7079 32.9185 55.7748 33.5546 55.9959 34.025H54.064C53.9233 33.7949 53.8839 33.4051 53.8839 33.0401L53.4731 33.378Z"/>
        <path fill-rule="evenodd" clip-rule="evenodd" d="M57.75 34.025H59.574V24.1033H57.75V34.025Z"/>
        <path fill-rule="evenodd" clip-rule="evenodd"
              d="M75.7208 30.4342C74.8285 30.7178 74.3761 31.2169 74.3761 31.9856C74.3761 32.5806 74.7586 32.9859 75.1992 32.9859C75.9225 32.9859 76.8706 32.094 76.7366 30.1103L75.7208 30.4342ZM76.2924 33.378C75.8019 33.7832 75.1701 34.1885 74.5391 34.1885C73.4711 34.1885 72.5781 33.378 72.5781 32.1358C72.5781 30.8519 73.5247 30.1374 75.1173 29.6772L76.7366 29.2045C76.6362 28.5845 76.0773 28.194 75.4842 28.194C74.705 28.194 74.1551 28.4776 73.6758 28.8828L73.0857 28.032C73.9363 27.3439 74.7735 27.1145 75.7208 27.1145C76.9792 27.1145 78.5271 27.5168 78.5271 29.6252V32.3776C78.5271 32.9185 78.5956 33.5546 78.8137 34.025H76.884C76.7485 33.7949 76.7031 33.4051 76.7031 33.0401L76.2924 33.378Z"/>
        <path fill-rule="evenodd" clip-rule="evenodd"
              d="M82.3814 28.0723C82.9991 27.4252 83.8638 27.1145 84.7263 27.1145C86.3293 27.1145 87.1791 27.9763 87.1791 29.6772V34.025H85.3566V29.8816C85.3566 28.9356 84.931 28.3141 83.9851 28.3141C83.0936 28.3141 82.3948 28.8953 82.3948 30.0033V34.025H80.5723V27.275H82.3814V28.0723Z"/>
        <path fill-rule="evenodd" clip-rule="evenodd"
              d="M66.2253 32.8883H67.2121C68.2823 32.8883 69.0934 32.3358 69.0934 31.2842C69.0934 30.1762 68.2562 29.7042 67.201 29.7042H66.2253V32.8883ZM66.2253 28.5434H66.8319C67.9437 28.5434 68.6983 27.8421 68.6983 26.9627C68.6983 26.1273 68.0642 25.7638 67.2285 25.7638H66.2253V28.5434ZM64.2949 34.0506V24.6016H67.7636C69.3799 24.6016 70.5193 25.33 70.5193 26.6124C70.5193 28.1235 69.272 28.7464 68.6008 28.9208V28.9479C69.7937 29.0029 71.1221 29.8112 71.1221 31.2556C71.1221 32.8883 69.7357 34.0506 67.4771 34.0506H64.2949Z"/>
    </g>
</svg>